<svg xmlns="http://www.w3.org/2000/svg" width="28" height="25"><path fill-rule="nonzero" d="M12.837 6.94v13.075H9.407l-.295-1.128h-.098a5.184 5.184 0 0 1-1.47 1.03c-.556.261-1.096.392-1.619.392-1.013 0-1.896-.261-2.648-.784-.751-.523-1.332-1.267-1.74-2.231-.409-.965-.613-2.1-.613-3.408 0-1.291.237-2.423.71-3.396.475-.972 1.096-1.72 1.864-2.243.768-.523 1.577-.785 2.427-.785.621 0 1.148.103 1.581.307.381.18.753.438 1.115.776V5.203c.135-1.52 1.54-2.28 4.216-2.28V6.94ZM8.62 15.17H8.62v-3.688c-.441-.392-.997-.587-1.666-.587-.49 0-.9.237-1.226.71-.327.475-.49 1.218-.49 2.232 0 1.062.155 1.834.466 2.317.31.482.76.723 1.348.723.343 0 .637-.066.883-.196.245-.131.474-.36.686-.687v-.825Zm4.659 9.108h.002c1.92-.757 2.866-2.325 2.841-4.705v-.048l.05-11.768h4.216l-.049 11.62c0 1.553-.368 2.816-1.103 3.788-.736.973-1.953 1.46-3.653 1.46-.916 0-1.684-.115-2.305-.344v-.003Zm5.083-18.717a2.469 2.469 0 1 1 0-4.937 2.469 2.469 0 0 1 0 4.937Zm7.013 14.488a2.469 2.469 0 1 1 0-4.937 2.469 2.469 0 0 1 0 4.937Z"/></svg>