<svg aria-hidden="true" style="position: absolute; width: 0; height: 0; overflow: hidden;" version="1.1" xmlns="http://www.w3.org/2000/svg" xmlns:xlink="http://www.w3.org/1999/xlink">
<defs>
<symbol id="icon-djinni" viewBox="0 0 36 32">
<title>djinni</title>
<path d="M16.431 8.883v16.736h-4.39l-0.378-1.444h-0.125c-0.532 0.532-1.154 0.974-1.841 1.301l-0.040 0.017c-0.712 0.334-1.403 0.502-2.072 0.502-1.297 0-2.427-0.334-3.389-1.004-0.961-0.669-1.705-1.622-2.227-2.856-0.524-1.235-0.785-2.688-0.785-4.362 0-1.652 0.303-3.101 0.909-4.347 0.608-1.244 1.403-2.202 2.386-2.871s2.019-1.005 3.107-1.005c0.795 0 1.469 0.132 2.024 0.393 0.488 0.23 0.964 0.561 1.427 0.993v-4.278c0.173-1.946 1.971-2.918 5.396-2.918v5.142zM11.034 19.418v0-4.721c-0.564-0.502-1.276-0.751-2.132-0.751-0.627 0-1.152 0.303-1.569 0.909-0.419 0.608-0.627 1.559-0.627 2.857 0 1.359 0.198 2.348 0.596 2.966 0.397 0.617 0.973 0.925 1.725 0.925 0.439 0 0.815-0.084 1.13-0.251 0.314-0.168 0.607-0.461 0.878-0.879v-1.056zM16.997 31.076h0.003c2.458-0.969 3.668-2.976 3.636-6.022v-0.061l0.064-15.063h5.396l-0.063 14.874c0 1.988-0.471 3.604-1.412 4.849-0.942 1.245-2.5 1.869-4.676 1.869-1.172 0-2.156-0.147-2.95-0.44v-0.004zM23.503 7.118c-0.019 0-0.041 0.001-0.064 0.001-1.745 0-3.16-1.415-3.16-3.16s1.415-3.16 3.16-3.16c0.022 0 0.045 0 0.067 0.001l-0.003-0c1.718 0.036 3.097 1.437 3.097 3.16s-1.379 3.124-3.093 3.16l-0.003 0zM32.48 25.663c-0.019 0-0.041 0.001-0.064 0.001-1.745 0-3.16-1.415-3.16-3.16s1.415-3.16 3.16-3.16c0.022 0 0.045 0 0.067 0.001l-0.003-0c1.718 0.036 3.097 1.437 3.097 3.16s-1.379 3.124-3.093 3.16l-0.003 0z"></path>
</symbol>
<symbol id="icon-email" viewBox="0 0 32 32">
<title>email</title>
<path d="M29 4h-26c-1.65 0-3 1.35-3 3v20c0 1.65 1.35 3 3 3h26c1.65 0 3-1.35 3-3v-20c0-1.65-1.35-3-3-3zM12.461 17.199l-8.461 6.59v-15.676l8.461 9.086zM5.512 8h20.976l-10.488 7.875-10.488-7.875zM12.79 17.553l3.21 3.447 3.21-3.447 6.58 8.447h-19.579l6.58-8.447zM19.539 17.199l8.461-9.086v15.676l-8.461-6.59z"></path>
</symbol>
<symbol id="icon-phone" viewBox="0 0 32 32">
<title>phone</title>
<path d="M23 0h-14c-1.65 0-3 1.35-3 3v26c0 1.65 1.35 3 3 3h14c1.65 0 3-1.35 3-3v-26c0-1.65-1.35-3-3-3zM12 1.5h8v1h-8v-1zM16 30c-1.105 0-2-0.895-2-2s0.895-2 2-2 2 0.895 2 2-0.895 2-2 2zM24 24h-16v-20h16v20z"></path>
</symbol>
<symbol id="icon-facebook" viewBox="0 0 32 32">
<title>facebook</title>
<path d="M29 0h-26c-1.65 0-3 1.35-3 3v26c0 1.65 1.35 3 3 3h13v-14h-4v-4h4v-2c0-3.306 2.694-6 6-6h4v4h-4c-1.1 0-2 0.9-2 2v2h6l-1 4h-5v14h9c1.65 0 3-1.35 3-3v-26c0-1.65-1.35-3-3-3z"></path>
</symbol>
<symbol id="icon-github" viewBox="0 0 32 32">
<title>github</title>
<path d="M16 0.395c-8.836 0-16 7.163-16 16 0 7.069 4.585 13.067 10.942 15.182 0.8 0.148 1.094-0.347 1.094-0.77 0-0.381-0.015-1.642-0.022-2.979-4.452 0.968-5.391-1.888-5.391-1.888-0.728-1.849-1.776-2.341-1.776-2.341-1.452-0.993 0.11-0.973 0.11-0.973 1.606 0.113 2.452 1.649 2.452 1.649 1.427 2.446 3.743 1.739 4.656 1.33 0.143-1.034 0.558-1.74 1.016-2.14-3.554-0.404-7.29-1.777-7.29-7.907 0-1.747 0.625-3.174 1.649-4.295-0.166-0.403-0.714-2.030 0.155-4.234 0 0 1.344-0.43 4.401 1.64 1.276-0.355 2.645-0.532 4.005-0.539 1.359 0.006 2.729 0.184 4.008 0.539 3.054-2.070 4.395-1.64 4.395-1.64 0.871 2.204 0.323 3.831 0.157 4.234 1.026 1.12 1.647 2.548 1.647 4.295 0 6.145-3.743 7.498-7.306 7.895 0.574 0.497 1.085 1.47 1.085 2.963 0 2.141-0.019 3.864-0.019 4.391 0 0.426 0.288 0.925 1.099 0.768 6.354-2.118 10.933-8.113 10.933-15.18 0-8.837-7.164-16-16-16z"></path>
</symbol>
<symbol id="icon-linkedin" viewBox="0 0 32 32">
<title>linkedin</title>
<path d="M29 0h-26c-1.65 0-3 1.35-3 3v26c0 1.65 1.35 3 3 3h26c1.65 0 3-1.35 3-3v-26c0-1.65-1.35-3-3-3zM12 26h-4v-14h4v14zM10 10c-1.106 0-2-0.894-2-2s0.894-2 2-2c1.106 0 2 0.894 2 2s-0.894 2-2 2zM26 26h-4v-8c0-1.106-0.894-2-2-2s-2 0.894-2 2v8h-4v-14h4v2.481c0.825-1.131 2.087-2.481 3.5-2.481 2.488 0 4.5 2.238 4.5 5v9z"></path>
</symbol>
</defs>
</svg>
